<svg width="192" height="22" viewBox="0 0 192 22" fill="none" xmlns="http://www.w3.org/2000/svg">
<path d="M35.7841 21.7893L32.3197 16.6654H28.4959V21.7893H24.3389V3.39648H32.1146C36.9133 3.39648 39.9159 5.94502 39.9159 10.0702C39.9159 12.8291 38.5557 14.8522 36.2206 15.8769L40.2495 21.789L35.7841 21.7893ZM31.8838 6.86475H28.4959V13.2759H31.8838C34.4243 13.2759 35.7074 12.0673 35.7074 10.0705C35.7069 8.04711 34.4239 6.86475 31.8838 6.86475Z" fill="#0F1B49"/>
<path d="M55.7232 15.8779H45.2785C45.6634 17.6385 47.1262 18.7157 49.2299 18.7157C50.6927 18.7157 51.7449 18.269 52.6942 17.3493L54.8244 19.7142C53.5411 21.2119 51.6166 22.0002 49.1274 22.0002C44.3541 22.0002 41.249 18.926 41.249 14.7219C41.249 10.4915 44.4056 7.44336 48.614 7.44336C52.6686 7.44336 55.7995 10.2287 55.7995 14.7743C55.8 15.0894 55.7486 15.5361 55.7232 15.8779ZM45.2266 13.4864H52.0271C51.7455 11.6998 50.4366 10.5439 48.6405 10.5439C46.8183 10.5439 45.5094 11.6735 45.2273 13.4864H45.2266Z" fill="#0F1B49"/>
<path d="M56.4922 20.4756L57.8265 17.5323C59.0582 18.3467 60.9316 18.8987 62.6253 18.8987C64.473 18.8987 65.1658 18.3994 65.1658 17.6112C65.1658 15.2989 56.8257 17.6638 56.8257 12.0143C56.8257 9.33425 59.1865 7.44238 63.2156 7.44238C65.1146 7.44238 67.2188 7.88911 68.5275 8.67744L67.193 11.5939C65.8331 10.8057 64.473 10.5432 63.2156 10.5432C61.4192 10.5432 60.6491 11.1211 60.6491 11.8568C60.6491 14.2742 68.9894 11.9356 68.9894 17.506C68.9894 20.1338 66.6027 21.9992 62.4714 21.9992C60.1361 21.9998 57.7751 21.3428 56.4922 20.4756Z" fill="#0F1B49"/>
<path d="M79.7162 21.1062C78.8949 21.7104 77.6887 21.9996 76.4572 21.9996C73.1982 21.9996 71.2994 20.2916 71.2994 16.9284V11.1216H69.1689V7.96849H71.2989V4.52637H75.3022V7.96849H78.7408V11.1216H75.3022V16.8757C75.3022 18.0853 75.9438 18.7413 77.0216 18.7413C77.6118 18.7413 78.202 18.5574 78.6383 18.2159L79.7162 21.1062Z" fill="#0F1B49"/>
<path d="M93.5478 13.7227V21.7895H89.8014V20.0289C89.057 21.3165 87.6199 21.9998 85.5927 21.9998C82.3593 21.9998 80.4346 20.1605 80.4346 17.7174C80.4346 15.2206 82.1535 13.4863 86.363 13.4863H89.5451C89.5451 11.7257 88.5186 10.701 86.363 10.701C84.9003 10.701 83.3862 11.2001 82.3853 12.0146L80.9483 9.15045C82.4622 8.04677 84.695 7.44238 86.9018 7.44238C91.11 7.44294 93.5478 9.44034 93.5478 13.7227ZM89.5447 17.3224V15.8777H86.7988C84.9249 15.8777 84.3351 16.5868 84.3351 17.5331C84.3351 18.5578 85.1821 19.241 86.5935 19.241C87.928 19.2407 89.0826 18.6102 89.5447 17.3226V17.3224Z" fill="#0F1B49"/>
<path d="M110.432 7.65332V21.7897H106.634V20.1074C105.582 21.3423 104.042 21.9992 102.349 21.9992C98.8844 21.9992 96.4463 20.0021 96.4463 15.6404V7.65332H100.45V15.0368C100.45 17.4017 101.476 18.4527 103.247 18.4527C105.095 18.4527 106.429 17.244 106.429 14.6431V7.65332H110.432Z" fill="#0F1B49"/>
<path d="M122.083 7.44287V11.2266C121.749 11.2003 121.493 11.1741 121.185 11.1741C118.978 11.1741 117.515 12.4091 117.515 15.1155V21.7892H113.512V7.65309H117.335V9.51868C118.311 8.15251 119.953 7.44287 122.083 7.44287Z" fill="#0F1B49"/>
<path d="M135.967 13.7226V21.7895H132.219V20.0289C131.475 21.3165 130.038 21.9997 128.01 21.9997C124.776 21.9997 122.852 20.1604 122.852 17.7174C122.852 15.2213 124.571 13.4872 128.78 13.4872H131.962C131.962 11.7266 130.936 10.7019 128.78 10.7019C127.317 10.7019 125.803 11.201 124.802 12.0155L123.366 9.15093C124.88 8.04726 127.113 7.44287 129.32 7.44287C133.529 7.44287 135.967 9.44027 135.967 13.7226ZM131.964 17.3224V15.8777H129.217C127.343 15.8777 126.753 16.5867 126.753 17.533C126.753 18.5577 127.6 19.2409 129.012 19.2409C130.346 19.2407 131.501 18.6101 131.963 17.3225L131.964 17.3224Z" fill="#0F1B49"/>
<path d="M153.057 13.6964V21.7895H149.053V14.3273C149.053 12.0411 148.027 10.9904 146.256 10.9904C144.331 10.9904 142.946 12.1992 142.946 14.8V21.7893H138.942V7.65309H142.766V9.30846C143.844 8.09982 145.461 7.44287 147.334 7.44287C150.593 7.44287 153.057 9.38743 153.057 13.6964Z" fill="#0F1B49"/>
<path d="M164.938 21.1062C164.116 21.7104 162.911 21.9996 161.679 21.9996C158.42 21.9996 156.521 20.2916 156.521 16.9284V11.1216H154.391V7.96849H156.521V4.52637H160.524V7.96849H163.962V11.1216H160.524V16.8757C160.524 18.0853 161.165 18.7413 162.243 18.7413C162.833 18.7413 163.424 18.5574 163.86 18.2159L164.938 21.1062Z" fill="#0F1B49"/>
<path d="M178.578 3.39746H174.475L166.466 21.7896H170.725L172.316 17.8508H172.324L176.5 7.57731L179.349 14.6188L180.654 17.8507L182.249 21.7895H186.613L178.578 3.39746Z" fill="#C6C6C6"/>
<path d="M187.842 3.39746V21.7896H192V3.39746H187.842Z" fill="#C6C6C6"/>
<path opacity="0.08" d="M11.7118 8.53747C11.7118 10.4416 10.2005 11.989 8.34072 11.989C6.48094 11.989 4.96973 10.4412 4.96973 8.53747C4.96918 8.21198 5.01343 7.88804 5.10118 7.5752C5.0614 7.78809 5.04162 8.0044 5.04211 8.22116C5.04211 10.0842 6.52059 11.5921 8.34086 11.5921C10.1611 11.5921 11.6397 10.0849 11.6397 8.22116C11.6403 8.00439 11.6204 7.78808 11.5805 7.5752C11.6683 7.88803 11.7125 8.21198 11.7118 8.53747Z" fill="black"/>
<path d="M4.96992 17.0774V21.7789H0V12.3545C1.12366 15.9269 4.96992 17.0774 4.96992 17.0774Z" fill="url(#paint0_linear_3689_2393)"/>
<path d="M13.8844 14.9181C15.5615 13.3866 16.6343 11.169 16.6776 8.69443C16.7625 3.91311 12.8066 -0.000488281 8.13613 -0.000488281C3.6427 -0.000488281 0 3.7293 0 8.33015V8.53634C0 13.2551 3.73314 17.0773 8.34158 17.0773C10.6143 17.0773 12.4619 18.9649 12.4619 21.2963C12.462 21.4575 12.4535 21.6186 12.4366 21.7789C13.716 21.7875 15.1891 21.7573 16.6663 21.7093L16.6696 21.706C16.7932 19.0044 15.6892 16.5619 13.8844 14.9181ZM7.05796 12.5439C5.41232 11.9922 4.22131 10.4028 4.22131 8.5362C4.22131 6.20915 6.06887 4.31742 8.34158 4.31742C10.6143 4.31742 12.4619 6.20915 12.4619 8.53634C12.4619 9.96272 11.7674 11.2254 10.7069 11.9881C10.7069 11.9881 12.8491 12.7945 13.8802 14.9098C12.3552 13.5191 10.3837 12.752 8.34158 12.7547C7.90543 12.7555 7.472 12.6843 7.05796 12.5439Z" fill="url(#paint1_linear_3689_2393)"/>
<defs>
<linearGradient id="paint0_linear_3689_2393" x1="13.7663" y1="6.40443" x2="-7.69922" y2="25.7561" gradientUnits="userSpaceOnUse">
<stop stop-color="#00FFB0"/>
<stop offset="0.31" stop-color="#48D0FF"/>
<stop offset="0.63" stop-color="#5F5FC9"/>
<stop offset="1" stop-color="#272782"/>
</linearGradient>
<linearGradient id="paint1_linear_3689_2393" x1="14.5741" y1="7.29767" x2="-6.89141" y2="26.6494" gradientUnits="userSpaceOnUse">
<stop stop-color="#00FFB0"/>
<stop offset="0.31" stop-color="#48D0FF"/>
<stop offset="0.63" stop-color="#5F5FC9"/>
<stop offset="1" stop-color="#272782"/>
</linearGradient>
</defs>
</svg>
