<svg width="24" height="25" viewBox="0 0 24 25" fill="none" xmlns="http://www.w3.org/2000/svg">
<path d="M12 8.3667V11.1417" stroke="#151924" stroke-width="1.25" stroke-miterlimit="10" stroke-linecap="round"/>
<path d="M12.0171 4.6665C8.9504 4.6665 6.46707 7.14984 6.46707 10.2165V11.9665C6.46707 12.5332 6.23374 13.3832 5.94207 13.8665L4.88374 15.6332C4.23374 16.7248 4.68374 17.9415 5.88374 18.3415C9.86707 19.6665 14.1754 19.6665 18.1587 18.3415C19.2837 17.9665 19.7671 16.6498 19.1587 15.6332L18.1004 13.8665C17.8087 13.3832 17.5754 12.5248 17.5754 11.9665V10.2165C17.5671 7.1665 15.0671 4.6665 12.0171 4.6665Z" stroke="#151924" stroke-width="1.5" stroke-miterlimit="10" stroke-linecap="round"/>
<path d="M14.7746 18.6831C14.7746 20.2081 13.5246 21.4581 11.9996 21.4581C11.2413 21.4581 10.5413 21.1414 10.0413 20.6414C9.54128 20.1414 9.22461 19.4414 9.22461 18.6831" stroke="#151924" stroke-width="1.5" stroke-miterlimit="10"/>
<rect x="11.625" y="0.625" width="7.91667" height="7.91667" rx="3.95833" fill="#FF3333"/>
<rect x="11.625" y="0.625" width="7.91667" height="7.91667" rx="3.95833" stroke="white" stroke-width="1.25"/>
</svg>
