<svg width="32" height="32" viewBox="0 0 32 32" fill="none" xmlns="http://www.w3.org/2000/svg">
<path d="M19.9999 14.6669V17.3331M22.6668 14.6669H9.33301M21.333 9.33312H10.6668V5.33312C10.6668 4.97955 10.8072 4.64047 11.0572 4.39046C11.3072 4.14045 11.6463 4 11.9999 4H19.9999C20.3535 4 20.6925 4.14045 20.9425 4.39046C21.1926 4.64047 21.333 4.97955 21.333 5.33312V9.33312Z" stroke="#4DB9F4" stroke-width="2" stroke-linecap="round" stroke-linejoin="round"/>
<path d="M28 26.6668V10.6668C28 10.3131 27.8596 9.97399 27.6096 9.72388C27.3596 9.47377 27.0205 9.33318 26.6669 9.33301H5.33312C4.59712 9.33301 4 9.93013 4 10.6668V26.6668C4 27.4028 4.59712 27.9999 5.33312 27.9999H26.6669C27.4029 27.9999 28 27.4028 28 26.6668Z" stroke="#4DB9F4" stroke-width="2" stroke-linecap="round" stroke-linejoin="round"/>
</svg>
